<?xml version="1.0" encoding="UTF-8"?>
<svg version="1.1" xmlns="http://www.w3.org/2000/svg" width="500" height="500">
<path d="M0 0 C165 0 330 0 500 0 C500 165 500 330 500 500 C335 500 170 500 0 500 C0 335 0 170 0 0 Z " fill="#FEFEFE" transform="translate(0,0)"/>
<path d="M0 0 C0.98742187 0.35191406 1.97484375 0.70382813 2.9921875 1.06640625 C12.24617838 4.63378441 20.31807747 9.59570747 27 17 C27.52980469 17.5259375 28.05960937 18.051875 28.60546875 18.59375 C40.65398836 31.14761591 44.48540859 46.97488129 44.35180664 63.87060547 C43.96027956 79.78367498 38.51370795 93.00091167 28 105 C27.20142578 105.92232422 27.20142578 105.92232422 26.38671875 106.86328125 C17.36609111 116.57283511 3.16191629 124.27066328 -10.22314453 125.14526367 C-12.85722528 125.17008328 -15.49079357 125.18566047 -18.125 125.1875 C-19.47464844 125.20586914 -19.47464844 125.20586914 -20.8515625 125.22460938 C-27.12355038 125.23812659 -32.90224153 124.455578 -39 123 C-38.46839238 117.97032254 -37.89414318 112.98165484 -37 108 C-36.27296875 108.0721875 -35.5459375 108.144375 -34.796875 108.21875 C-31.53333022 108.52000029 -28.26914797 108.76756058 -25 109 C-24.0409375 109.07992187 -23.081875 109.15984375 -22.09375 109.2421875 C-9.77265841 109.8176231 2.02718803 105.84651132 11.66015625 98.18359375 C15.28582205 94.80004253 18.26991728 91.13221759 21 87 C21.51175781 86.23171875 22.02351563 85.4634375 22.55078125 84.671875 C28.58914909 73.53914292 29.73074259 60.35308512 26.3125 48.3125 C21.83585915 35.19562927 15.28254067 26.41177607 3.16015625 19.54296875 C-4.43467872 15.83473659 -10.36895663 14.51969823 -18.875 14.625 C-19.80441406 14.61339844 -20.73382813 14.60179687 -21.69140625 14.58984375 C-33.85776812 14.64074903 -43.97961301 18.63861486 -53.0390625 26.84765625 C-62.8250544 37.34496474 -67.66983333 50.16001686 -67.359375 64.39453125 C-66.6608209 71.40285117 -64.57465761 77.9333637 -61.36328125 84.1875 C-60 87 -60 87 -60 90 C-61.93108963 91.03290841 -63.870118 92.05098672 -65.8125 93.0625 C-66.89144531 93.63097656 -67.97039062 94.19945312 -69.08203125 94.78515625 C-72 96 -72 96 -75 95 C-76.53515625 92.33984375 -76.53515625 92.33984375 -78.0625 88.9375 C-78.56910156 87.83277344 -79.07570312 86.72804688 -79.59765625 85.58984375 C-82.71492467 77.60998392 -83.33915476 70.69036752 -83.3125 62.1875 C-83.32861328 61.17107422 -83.34472656 60.15464844 -83.36132812 59.10742188 C-83.37134654 43.3885349 -77.29653429 29.75171901 -67 18 C-66.42894531 17.32324219 -65.85789063 16.64648438 -65.26953125 15.94921875 C-49.47261815 -1.39707175 -21.87707227 -7.9408032 0 0 Z " fill="#30354C" transform="translate(304,150)"/>
<path d="M0 0 C-0.14235457 1.72945653 -0.28904382 3.45855654 -0.4375 5.1875 C-0.55931641 6.63189453 -0.55931641 6.63189453 -0.68359375 8.10546875 C-0.97666151 10.78649602 -1.42703754 13.3662986 -2 16 C-3.19625 15.835 -4.3925 15.67 -5.625 15.5 C-22.27059699 13.72307599 -36.80507512 15.49476486 -50.40625 25.828125 C-59.51117288 33.9976106 -65.43755704 46.06580988 -66.203125 58.2265625 C-66.40038242 72.52772537 -63.48069699 84.71600669 -53.671875 95.578125 C-48.36002069 100.6227162 -42.79517951 104.27096823 -36 107 C-34.68128906 107.54720703 -34.68128906 107.54720703 -33.3359375 108.10546875 C-19.03264264 111.94089559 -3.83934702 109.13016865 8.75 101.875 C19.33709426 94.68981067 24.05416658 84.83750026 28 73 C29.13381791 60.33855488 28.56705287 49.49915838 23 38 C22.505 36.02 22.505 36.02 22 34 C26.29 32.02 30.58 30.04 35 28 C38.22922694 31.22922694 39.52829422 34.21875077 41.125 38.375 C41.38925781 39.035 41.65351563 39.695 41.92578125 40.375 C47.7234838 55.148841 46.4155199 73.38863212 40.44140625 87.890625 C33.21760971 104.2516642 22.15235794 114.61128879 6 122 C4.98808594 122.474375 3.97617188 122.94875 2.93359375 123.4375 C-10.04948547 128.41636393 -28.25897739 128.21821168 -41.265625 123.24609375 C-42.61914062 122.62927734 -42.61914062 122.62927734 -44 122 C-44.92296875 121.59910156 -45.8459375 121.19820313 -46.796875 120.78515625 C-62.07952074 113.3381043 -74.39220336 98.9524821 -80 83 C-85.38072426 64.79666268 -84.0319554 47.27929262 -75.14453125 30.49609375 C-66.13684191 15.20396998 -52.52730582 4.99363302 -35.48046875 -0.0390625 C-23.24271327 -2.92647118 -12.28685397 -2.21956072 0 0 Z " fill="#30354C" transform="translate(233,149)"/>
<path d="M0 0 C1.65 0 3.3 0 5 0 C5 0.66 5 1.32 5 2 C4.01 2 3.02 2 2 2 C2 3.98 2 5.96 2 8 C1.67 8 1.34 8 1 8 C0.84850702 11.62885324 0.84850702 11.62885324 2 15 C0.68 15 -0.64 15 -2 15 C-1.47462276 9.9697924 -0.89405214 4.98114761 0 0 Z " fill="#444753" transform="translate(267,258)"/>
<path d="M0 0 C0.99 0.33 1.98 0.66 3 1 C1.02 4.63 -0.96 8.26 -3 12 C-3.99 11.01 -4.98 10.02 -6 9 C-5.34 9 -4.68 9 -4 9 C-3.896875 8.2575 -3.79375 7.515 -3.6875 6.75 C-2.95746496 3.82985982 -1.93210602 2.26812446 0 0 Z " fill="#3B3F50" transform="translate(270,237)"/>
<path d="M0 0 C2 3 2 3 1.75 5 C1 7 1 7 -1 10 C-1.99 9.67 -2.98 9.34 -4 9 C-2.94124926 5.59687262 -1.99097846 2.98646769 0 0 Z " fill="#393E4E" transform="translate(229,179)"/>
<path d="M0 0 C-1.32 1.65 -2.64 3.3 -4 5 C-9.75 4.25 -9.75 4.25 -12 2 C-10.37787941 1.47026689 -8.75218416 0.95146893 -7.125 0.4375 C-6.22007812 0.14746094 -5.31515625 -0.14257812 -4.3828125 -0.44140625 C-2 -1 -2 -1 0 0 Z " fill="#3F4455" transform="translate(236,256)"/>
<path d="M0 0 C0.99 0.33 1.98 0.66 3 1 C2.67 3.64 2.34 6.28 2 9 C1.34 8.34 0.68 7.68 0 7 C-0.99 7.495 -0.99 7.495 -2 8 C-2.33 6.02 -2.66 4.04 -3 2 C-2.01 1.34 -1.02 0.68 0 0 Z " fill="#2A3044" transform="translate(160,192)"/>
<path d="M0 0 C0.99 0.66 1.98 1.32 3 2 C2.40844669 3.31823302 1.80128537 4.62947051 1.1875 5.9375 C0.68283203 7.03384766 0.68283203 7.03384766 0.16796875 8.15234375 C-1 10 -1 10 -4 11 C-3.52269162 9.5410574 -3.04308958 8.08286504 -2.5625 6.625 C-2.29566406 5.81289062 -2.02882812 5.00078125 -1.75390625 4.1640625 C-1 2 -1 2 0 0 Z " fill="#414655" transform="translate(157,181)"/>
<path d="M0 0 C2.0625 1.6875 2.0625 1.6875 4 4 C3.75 6.75 3.75 6.75 3 9 C2.01 9.33 1.02 9.66 0 10 C-0.66 7.69 -1.32 5.38 -2 3 C-1.34 2.67 -0.68 2.34 0 2 C0 1.34 0 0.68 0 0 Z " fill="#3F4254" transform="translate(330,188)"/>
<path d="M0 0 C0.33 0.99 0.66 1.98 1 3 C1.66 3 2.32 3 3 3 C2.38545304 6.99455527 0.29353263 9.74466336 -2 13 C-3.45047396 10.09905209 -2.45356803 8.44027404 -1.5625 5.375 C-1.27503906 4.37210938 -0.98757813 3.36921875 -0.69140625 2.3359375 C-0.46324219 1.56507813 -0.23507812 0.79421875 0 0 Z " fill="#484C59" transform="translate(332,217)"/>
<path d="M0 0 C2.56616632 3.84924948 2.55097676 6.4349304 3 11 C1.68 10.67 0.36 10.34 -1 10 C-1 9.34 -1 8.68 -1 8 C-0.34 8 0.32 8 1 8 C0.67 7.34 0.34 6.68 0 6 C-0.039992 4.00039988 -0.04346799 1.99952758 0 0 Z " fill="#3F4353" transform="translate(274,189)"/>
<path d="M0 0 C-1.47692308 4.67692308 -1.47692308 4.67692308 -4.125 6.3125 C-5.053125 6.6528125 -5.053125 6.6528125 -6 7 C-6 5.68 -6 4.36 -6 3 C-2.78571429 0 -2.78571429 0 0 0 Z " fill="#EDEEF3" transform="translate(325,262)"/>
<path d="M0 0 C2.88437779 1.29299694 4.87219421 2.65941363 7 5 C5.25 5.75 5.25 5.75 3 6 C0.75 4.0625 0.75 4.0625 -1 2 C-0.67 1.34 -0.34 0.68 0 0 Z " fill="#393E54" transform="translate(178,245)"/>
<path d="M0 0 C3 1 3 1 5 4 C5 4.99 5 5.98 5 7 C2.00667261 6.0022242 1.05233685 5.2477975 -1 3 C-0.67 2.01 -0.34 1.02 0 0 Z " fill="#3A3E4F" transform="translate(171,236)"/>
<path d="M0 0 C0.99 0.33 1.98 0.66 3 1 C1.92598892 3.91517292 1.22189824 5.77810176 -1 8 C-1.66 7.01 -2.32 6.02 -3 5 C-1.68 4.67 -0.36 4.34 1 4 C0.67 2.68 0.34 1.36 0 0 Z " fill="#383C4F" transform="translate(173,179)"/>
<path d="M0 0 C1.98 0.99 1.98 0.99 4 2 C4 2.99 4 3.98 4 5 C3.01 5.33 2.02 5.66 1 6 C0.67 4.02 0.34 2.04 0 0 Z " fill="#373D4F" transform="translate(331,169)"/>
<path d="M0 0 C0.66 0.66 1.32 1.32 2 2 C0.02 2.99 -1.96 3.98 -4 5 C-4 3.68 -4 2.36 -4 1 C-2.125 0.375 -2.125 0.375 0 0 Z " fill="#424455" transform="translate(254,259)"/>
<path d="M0 0 C0.66 0.33 1.32 0.66 2 1 C1.67 2.32 1.34 3.64 1 5 C-1.475 4.01 -1.475 4.01 -4 3 C-3 1 -3 1 0 0 Z " fill="#414350" transform="translate(268,177)"/>
<path d="M0 0 C0.33 0.66 0.66 1.32 1 2 C1.66 2.33 2.32 2.66 3 3 C2.01 3 1.02 3 0 3 C0.33 4.32 0.66 5.64 1 7 C-0.32 6.34 -1.64 5.68 -3 5 C-2.01 3.35 -1.02 1.7 0 0 Z " fill="#3D4155" transform="translate(162,173)"/>
</svg>
